# xmcd
#
# Track frame offsets: 
#        150
#        14387
#        28971
#        49219
#        62693
#        80913
#        97242
#        111242
#        119502
#        131459
#        144437
#        159793
#
# Disc length: 2317 seconds
#
# Revision: 0
# Processed by: cddbd v1.5.2PL0 Copyright (c) Steve Scherf et al.
# Submitted via: ExactAudioCopy v0.95b4
#
DISCID=a9090b0c
DTITLE=Züri West - Göteborg
DYEAR=2012
DGENRE=Pop-Folk
TTITLE0=3027
TTITLE1=Schmocker oder Schmid
TTITLE2=Hallo Schiisluun
TTITLE3=Göteborg
TTITLE4=Gitarre-Johnny
TTITLE5=När bring I wieder öpper um
TTITLE6=Mängisch rütscht's eim us de Händ
TTITLE7=Bugguwau
TTITLE8=Chliini Gibson
TTITLE9=Pinsuschwinger
TTITLE10=So Wörter
TTITLE11=Rain dogs learning to crawl
EXTD=
EXTT0=
EXTT1=
EXTT2=
EXTT3=
EXTT4=
EXTT5=
EXTT6=
EXTT7=
EXTT8=
EXTT9=
EXTT10=
EXTT11=
PLAYORDER=
